<svg xmlns="http://www.w3.org/2000/svg" xmlns:xlink="http://www.w3.org/1999/xlink" width="960" zoomAndPan="magnify" viewBox="0 0 720 719.999996" height="960" preserveAspectRatio="xMidYMid meet" version="1.0"><defs><clipPath id="5a888c8d8e"><path d="M 360 0 C 161.175781 0 0 161.175781 0 360 C 0 558.824219 161.175781 720 360 720 C 558.824219 720 720 558.824219 720 360 C 720 161.175781 558.824219 0 360 0 Z M 360 0 " clip-rule="nonzero"/></clipPath><clipPath id="2f5eb96371"><path d="M 0 0 L 720 0 L 720 720 L 0 720 Z M 0 0 " clip-rule="nonzero"/></clipPath><clipPath id="49717f3bf7"><path d="M 360 0 C 161.175781 0 0 161.175781 0 360 C 0 558.824219 161.175781 720 360 720 C 558.824219 720 720 558.824219 720 360 C 720 161.175781 558.824219 0 360 0 Z M 360 0 " clip-rule="nonzero"/></clipPath><clipPath id="1dfd6e4182"><rect x="0" width="720" y="0" height="720"/></clipPath></defs><g clip-path="url(#5a888c8d8e)"><g transform="matrix(1, 0, 0, 1, 0, -0.000000000000023324)"><g clip-path="url(#1dfd6e4182)"><g clip-path="url(#2f5eb96371)"><g clip-path="url(#49717f3bf7)"><rect x="-158.4" width="1036.8" fill="#545454" height="1036.799994" y="-158.399999" fill-opacity="1"/></g></g></g></g></g><path fill="#ff6b35" d="M 360 607.5 C 341.25 607.5 325.3125 600.9375 312.1875 587.8125 C 299.0625 574.6875 292.5 558.75 292.5 540 C 292.5 534.75 292.96875 529.78125 293.90625 525.09375 C 294.84375 520.40625 296.4375 515.8125 298.6875 511.3125 L 208.6875 420.75 C 204.1875 422.625 199.5 424.21875 194.625 425.53125 C 189.75 426.84375 184.6875 427.5 179.4375 427.5 C 160.6875 427.5 144.84375 420.9375 131.90625 407.8125 C 118.96875 394.6875 112.5 378.75 112.5 360 C 112.5 341.25 118.96875 325.3125 131.90625 312.1875 C 144.84375 299.0625 160.6875 292.5 179.4375 292.5 C 194.0625 292.5 207.1875 296.71875 218.8125 305.15625 C 230.4375 313.59375 238.5 324.375 243 337.5 L 296.4375 337.5 C 299.8125 327.75 305.0625 319.40625 312.1875 312.46875 C 319.3125 305.53125 327.75 300.375 337.5 297 L 337.5 243.5625 C 324.375 239.0625 313.59375 231 305.15625 219.375 C 296.71875 207.75 292.5 194.625 292.5 180 C 292.5 161.25 299.0625 145.3125 312.1875 132.1875 C 325.3125 119.0625 341.25 112.5 360 112.5 C 378.75 112.5 394.6875 119.0625 407.8125 132.1875 C 420.9375 145.3125 427.5 161.25 427.5 180 C 427.5 185.25 426.9375 190.3125 425.8125 195.1875 C 424.6875 200.0625 423 204.75 420.75 209.25 L 510.75 299.25 C 515.25 297 519.9375 295.3125 524.8125 294.1875 C 529.6875 293.0625 534.75 292.5 540 292.5 C 558.75 292.5 574.6875 299.0625 587.8125 312.1875 C 600.9375 325.3125 607.5 341.25 607.5 360 C 607.5 378.75 600.9375 394.6875 587.8125 407.8125 C 574.6875 420.9375 558.75 427.5 540 427.5 C 525.375 427.5 512.25 423.28125 500.625 414.84375 C 489 406.40625 480.9375 395.625 476.4375 382.5 L 423 382.5 C 419.625 392.25 414.46875 400.6875 407.53125 407.8125 C 400.59375 414.9375 392.25 420.1875 382.5 423.5625 L 382.5 476.4375 C 395.625 480.9375 406.40625 489 414.84375 500.625 C 423.28125 512.25 427.5 525.375 427.5 540 C 427.5 558.75 420.9375 574.6875 407.8125 587.8125 C 394.6875 600.9375 378.75 607.5 360 607.5 Z M 337.5 476.4375 L 337.5 423.5625 C 332.625 421.6875 328.125 419.4375 324 416.8125 C 319.875 414.1875 316.03125 411.09375 312.46875 407.53125 C 308.90625 403.96875 305.8125 400.125 303.1875 396 C 300.5625 391.875 298.3125 387.375 296.4375 382.5 L 243 382.5 C 243 382.875 242.90625 383.34375 242.71875 383.90625 L 242.15625 385.59375 C 241.96875 386.15625 241.78125 386.625 241.59375 387 L 240.75 388.6875 L 257.0625 405 C 266.0625 414 275.625 423.65625 285.75 433.96875 C 295.875 444.28125 305.4375 453.9375 314.4375 462.9375 L 330.75 479.25 C 331.5 478.875 332.15625 478.59375 332.71875 478.40625 C 333.28125 478.21875 333.84375 477.9375 334.40625 477.5625 C 334.96875 477.1875 335.53125 476.90625 336.09375 476.71875 C 336.65625 476.53125 337.125 476.4375 337.5 476.4375 Z M 423 337.5 L 476.4375 337.5 C 476.4375 336.75 476.53125 336.09375 476.71875 335.53125 C 476.90625 334.96875 477.1875 334.40625 477.5625 333.84375 C 477.9375 333.28125 478.21875 332.71875 478.40625 332.15625 C 478.59375 331.59375 478.875 331.125 479.25 330.75 L 389.25 240.75 C 388.875 241.125 388.40625 241.40625 387.84375 241.59375 C 387.28125 241.78125 386.71875 242.0625 386.15625 242.4375 C 385.59375 242.8125 385.03125 243.09375 384.46875 243.28125 C 383.90625 243.46875 383.25 243.5625 382.5 243.5625 L 382.5 297 C 387 298.5 391.40625 300.65625 395.71875 303.46875 C 400.03125 306.28125 403.875 309.375 407.25 312.75 C 410.625 316.125 413.71875 319.96875 416.53125 324.28125 C 419.34375 328.59375 421.5 333 423 337.5 Z M 540 382.5 C 546.375 382.5 551.71875 380.34375 556.03125 376.03125 C 560.34375 371.71875 562.5 366.375 562.5 360 C 562.5 353.625 560.34375 348.28125 556.03125 343.96875 C 551.71875 339.65625 546.375 337.5 540 337.5 C 533.625 337.5 528.28125 339.65625 523.96875 343.96875 C 519.65625 348.28125 517.5 353.625 517.5 360 C 517.5 366.375 519.65625 371.71875 523.96875 376.03125 C 528.28125 380.34375 533.625 382.5 540 382.5 Z M 360 382.5 C 366.375 382.5 371.71875 380.34375 376.03125 376.03125 C 380.34375 371.71875 382.5 366.375 382.5 360 C 382.5 353.625 380.34375 348.28125 376.03125 343.96875 C 371.71875 339.65625 366.375 337.5 360 337.5 C 353.625 337.5 348.28125 339.65625 343.96875 343.96875 C 339.65625 348.28125 337.5 353.625 337.5 360 C 337.5 366.375 339.65625 371.71875 343.96875 376.03125 C 348.28125 380.34375 353.625 382.5 360 382.5 Z M 360 562.5 C 366.375 562.5 371.71875 560.34375 376.03125 556.03125 C 380.34375 551.71875 382.5 546.375 382.5 540 C 382.5 533.625 380.34375 528.28125 376.03125 523.96875 C 371.71875 519.65625 366.375 517.5 360 517.5 C 353.625 517.5 348.28125 519.65625 343.96875 523.96875 C 339.65625 528.28125 337.5 533.625 337.5 540 C 337.5 546.375 339.65625 551.71875 343.96875 556.03125 C 348.28125 560.34375 353.625 562.5 360 562.5 Z M 180 382.5 C 186.375 382.5 191.71875 380.34375 196.03125 376.03125 C 200.34375 371.71875 202.5 366.375 202.5 360 C 202.5 353.625 200.34375 348.28125 196.03125 343.96875 C 191.71875 339.65625 186.375 337.5 180 337.5 C 173.625 337.5 168.28125 339.65625 163.96875 343.96875 C 159.65625 348.28125 157.5 353.625 157.5 360 C 157.5 366.375 159.65625 371.71875 163.96875 376.03125 C 168.28125 380.34375 173.625 382.5 180 382.5 Z M 360 202.5 C 366.375 202.5 371.71875 200.34375 376.03125 196.03125 C 380.34375 191.71875 382.5 186.375 382.5 180 C 382.5 173.625 380.34375 168.28125 376.03125 163.96875 C 371.71875 159.65625 366.375 157.5 360 157.5 C 353.625 157.5 348.28125 159.65625 343.96875 163.96875 C 339.65625 168.28125 337.5 173.625 337.5 180 C 337.5 186.375 339.65625 191.71875 343.96875 196.03125 C 348.28125 200.34375 353.625 202.5 360 202.5 Z M 360 202.5 " fill-opacity="1" fill-rule="nonzero"/></svg>