<?xml version="1.0" encoding="UTF-8"?><!DOCTYPE svg  PUBLIC '-//W3C//DTD SVG 1.1//EN'  'http://www.w3.org/Graphics/SVG/1.1/DTD/svg11.dtd'><svg version="1.1" viewBox="0 0 256 256" xmlns="http://www.w3.org/2000/svg"><g><path d="m5.721-0.63h152.47c3.508 0 6.351 2.843 6.352 6.351v41.672c0 3.508-2.844 6.352-6.352 6.352h-152.47c-3.508-1e-3 -6.351-2.844-6.351-6.352v-41.672c1e-3 -3.507 2.844-6.35 6.351-6.351z" fill="#d4636e"/><path d="m188.6-0.63h61.054c3.507 1e-3 6.35 2.844 6.351 6.351v41.672c0 3.508-2.843 6.351-6.351 6.352h-61.054c-3.508 0-6.352-2.844-6.351-6.352v-41.672c1e-3 -3.507 2.844-6.35 6.351-6.351z" fill="#70b69d"/><path d="m5.721 69.561h61.054c3.507 1e-3 6.35 2.844 6.351 6.351v103.5c-1e-3 3.507-2.844 6.35-6.351 6.351h-61.054c-3.507-1e-3 -6.35-2.844-6.351-6.351v-103.5c1e-3 -3.507 2.844-6.35 6.351-6.351z" fill="#79b7ce"/><path d="m97.138 69.561h152.47c3.507 1e-3 6.35 2.844 6.351 6.351v103.5c-1e-3 3.507-2.844 6.35-6.351 6.351h-152.47c-3.508 0-6.351-2.843-6.352-6.351v-103.5c1e-3 -3.508 2.844-6.351 6.352-6.351z" fill="#e3ba71"/><path d="m79.436 201.62h-73.756c-3.483 0-4.097 1.68-1.229 3.77l63.512 46.835c3.406 2.254 7.353 3.556 11.432 3.77h78.796c3.498-0.022 6.329-2.853 6.352-6.351v-41.672c0-3.508-2.844-6.352-6.352-6.352z" fill="#75b9bc"/><path d="m187.37 252.23c-2.827 2.049-5.122 0.902-5.122-2.581v-41.672c0-3.508 2.843-6.351 6.351-6.352h61.054c3.483 0 4.097 1.68 1.229 3.77z" fill="#d19eb3"/></g></svg>